<svg width="96" height="26" viewBox="0 0 96 26" fill="none" xmlns="http://www.w3.org/2000/svg">
<path fill-rule="evenodd" clip-rule="evenodd" d="M3.80237 0V3.87621V7.75243H0V11.5725H3.80237V16.7933C3.80237 21.7864 7.82769 25.8341 12.7932 25.8341C17.7586 25.8341 21.784 21.7864 21.784 16.7933C21.784 11.8001 17.7586 7.75243 12.7932 7.75243H7.6013V0H3.80237ZM7.6013 16.7933V11.5725H12.7932C15.6606 11.5725 17.985 13.9099 17.985 16.7933C17.985 19.6766 15.6605 22.014 12.7932 22.014C9.92577 22.014 7.6013 19.6766 7.6013 16.7933Z" fill="#F9FAF5"/>
<path d="M95.875 8.21989H91.709V25.6163H95.875V8.21989Z" fill="#F9FAF5"/>
<path d="M91.709 1.79219V6.26919H95.875V1.79219H91.709Z" fill="#F9FAF5"/>
<path d="M87.4667 25.8081C85.5162 25.8081 84.0003 25.2752 82.9191 24.2092C81.859 23.1219 81.329 21.5976 81.329 19.6363V11.9614H78.3396V8.21989H78.6576C79.5057 8.21989 80.1629 7.99604 80.6293 7.54834C81.0958 7.10064 81.329 6.4504 81.329 5.59764V4.25454H85.495V8.21989H89.4702V11.9614H85.495V19.4124C85.495 19.988 85.5904 20.4784 85.7812 20.8834C85.9932 21.2885 86.3112 21.5976 86.7353 21.8108C87.1805 22.024 87.7423 22.1306 88.4207 22.1306C88.5692 22.1306 88.7387 22.1199 88.9296 22.0986C89.1416 22.0773 89.343 22.056 89.5338 22.0347V25.6163C89.237 25.6589 88.8978 25.7015 88.5162 25.7442C88.1345 25.7868 87.7847 25.8081 87.4667 25.8081Z" fill="#F9FAF5"/>
<path fill-rule="evenodd" clip-rule="evenodd" d="M32.6143 26C30.9183 26 29.3706 25.6056 27.9713 24.8168C26.5932 24.028 25.4908 22.9514 24.6639 21.587C23.8583 20.2225 23.4555 18.6662 23.4555 16.9181C23.4555 15.1699 23.8583 13.6136 24.6639 12.2492C25.4908 10.8848 26.5932 9.80816 27.9713 9.01935C29.3494 8.23055 30.8971 7.83614 32.6143 7.83614C34.3104 7.83614 35.8475 8.23055 37.2256 9.01935C38.6037 9.80816 39.6955 10.8848 40.5012 12.2492C41.328 13.5923 41.7414 15.1486 41.7414 16.9181C41.7414 18.6662 41.328 20.2225 40.5012 21.587C39.6743 22.9514 38.5719 24.028 37.1938 24.8168C35.8157 25.6056 34.2892 26 32.6143 26ZM32.6143 22.1626C33.5472 22.1626 34.3634 21.9387 35.0631 21.491C35.7839 21.0433 36.3457 20.4251 36.7486 19.6363C37.1726 18.8261 37.3846 17.9201 37.3846 16.9181C37.3846 15.8948 37.1726 14.9994 36.7486 14.2319C36.3457 13.4431 35.7839 12.8248 35.0631 12.3771C34.3634 11.9081 33.5472 11.6736 32.6143 11.6736C31.6603 11.6736 30.8229 11.9081 30.102 12.3771C29.3812 12.8248 28.8088 13.4431 28.3847 14.2319C27.9819 14.9994 27.7805 15.8948 27.7805 16.9181C27.7805 17.9201 27.9819 18.8261 28.3847 19.6363C28.8088 20.4251 29.3812 21.0433 30.102 21.491C30.8229 21.9387 31.6603 22.1626 32.6143 22.1626Z" fill="#F9FAF5"/>
<path d="M50.0625 26C48.7268 26 47.5608 25.7015 46.5643 25.1046C45.5891 24.5077 44.8364 23.6762 44.3064 22.6103C43.7976 21.5443 43.5432 20.2971 43.5432 18.8688V8.21989H47.7092V18.517C47.7092 19.2419 47.847 19.8814 48.1226 20.4357C48.4194 20.9687 48.8329 21.3951 49.3629 21.7149C49.9141 22.0133 50.5289 22.1626 51.2074 22.1626C51.8858 22.1626 52.49 22.0133 53.0201 21.7149C53.5501 21.3951 53.9635 20.958 54.2603 20.4037C54.5571 19.8494 54.7056 19.1886 54.7056 18.4211V8.21989H58.8716V25.6163H54.9282V23.5482C54.5265 24.2494 53.9753 24.8001 53.2745 25.2005C52.3628 25.7335 51.2922 26 50.0625 26Z" fill="#F9FAF5"/>
<path d="M65.6481 8.21989H61.7364V25.6163H65.9025V15.4151C65.9025 14.6476 66.0509 13.9867 66.3477 13.4324C66.6445 12.8781 67.0579 12.4517 67.588 12.1533C68.118 11.8335 68.7222 11.6736 69.4006 11.6736C70.1003 11.6736 70.7045 11.8335 71.2133 12.1533C71.7434 12.4517 72.1568 12.8781 72.4536 13.4324C72.7504 13.9867 72.8988 14.6476 72.8988 15.4151V25.6163H77.0648V14.4237C77.0648 13.1233 76.7892 11.9827 76.238 11.002C75.6868 10 74.9129 9.22189 73.9165 8.66759C72.9412 8.11329 71.8176 7.83614 70.5455 7.83614C69.3158 7.83614 68.2346 8.11329 67.3017 8.66759C66.5996 9.07808 66.0484 9.64034 65.6481 10.3543V8.21989Z" fill="#F9FAF5"/>
</svg>
